PathFileType	4	(X/Y/Z)	RBDS010static.trc
DataRate	CameraRate	NumFrames	NumMarkers	Units	OrigDataRate	OrigDataStartFrame	OrigNumFrames
150.000000	150.000000	4	48	mm	150.000000	112	150
Frame#	Time	L.Ankle			L.Ankle.Medial			L.ASIS			L.GTR			L.Heel.Bottom			L.Heel.Lateral			L.Heel.Top			L.HF			L.Iliac.Crest			L.Knee			L.Knee.Medial			L.MT1			L.MT2			L.MT5			L.PSIS			L.Shank.Bottom.Lateral			L.Shank.Bottom.Medial			L.Shank.Top.Lateral			L.Shank.Top.Medial			L.Thigh.Bottom.Lateral			L.Thigh.Bottom.Medial			L.Thigh.Top.Lateral			L.Thigh.Top.Medial			L.TT			R.Ankle			R.Ankle.Medial			R.ASIS			R.GTR			R.Heel.Bottom			R.Heel.Lateral			R.Heel.Top			R.HF			R.Iliac.Crest			R.Knee			R.Knee.Medial			R.MT1			R.MT2			R.MT5			R.PSIS			R.Shank.Bottom.Lateral			R.Shank.Bottom.Medial			R.Shank.Top.Lateral			R.Shank.Top.Medial			R.Thigh.Bottom.Lateral			R.Thigh.Bottom.Medial			R.Thigh.Top.Lateral			R.Thigh.Top.Medial			R.TT			
		X1	Y1	Z1	X2	Y2	Z2	X3	Y3	Z3	X4	Y4	Z4	X5	Y5	Z5	X6	Y6	Z6	X7	Y7	Z7	X8	Y8	Z8	X9	Y9	Z9	X10	Y10	Z10	X11	Y11	Z11	X12	Y12	Z12	X13	Y13	Z13	X14	Y14	Z14	X15	Y15	Z15	X16	Y16	Z16	X17	Y17	Z17	X18	Y18	Z18	X19	Y19	Z19	X20	Y20	Z20	X21	Y21	Z21	X22	Y22	Z22	X23	Y23	Z23	X24	Y24	Z24	X25	Y25	Z25	X26	Y26	Z26	X27	Y27	Z27	X28	Y28	Z28	X29	Y29	Z29	X30	Y30	Z30	X31	Y31	Z31	X32	Y32	Z32	X33	Y33	Z33	X34	Y34	Z34	X35	Y35	Z35	X36	Y36	Z36	X37	Y37	Z37	X38	Y38	Z38	X39	Y39	Z39	X40	Y40	Z40	X41	Y41	Z41	X42	Y42	Z42	X43	Y43	Z43	X44	Y44	Z44	X45	Y45	Z45	X46	Y46	Z46	X47	Y47	Z47	X48	Y48	Z48	

113	0.7466666666666667	710.4391479492188	102.1061096191406	1038.525756835938	728.3699340820313	118.2500686645508	1118.358764648438	811.81787109375	981.2974853515625	1090.974365234375	704.0034790039063	892.2179565429688	1043.568603515625	637.5359497070313	39.65936279296875	1083.025756835938	666.5354614257813	56.34319686889648	1038.43701171875	647.3826904296875	90.29871368408203	1084.291259765625	694.6417236328125	448.8077697753906	1029.14208984375	762.8663330078125	1065.870971679688	1061.2734375	691.1287841796875	512.26708984375	1033.38134765625	715.36083984375	495.4732971191406	1157.525390625	851.852783203125	55.97904205322266	1125.2626953125	864.4003295898438	69.32268524169922	1079.664672851563	829.0438232421875	50.95525741577148	1011.207641601563	644.4017944335938	1028.668212890625	1166.008666992188	683.680419921875	171.3418273925781	1034.40576171875	655.8529663085938	170.5269165039063	1080.695678710938	669.45458984375	249.6423034667969	1025.248168945313	641.4367065429688	249.8352661132813	1071.489990234375	692.9600219726563	597.95458984375	1026.15869140625	644.075439453125	589.288818359375	1079.31494140625	674.2978515625	706.4649658203125	1030.225830078125	629.9569702148438	699.0371704101563	1081.970336914063	754.8214111328125	430.6684265136719	1065.921997070313	706.43701171875	115.8487854003906	1402.745971679688	724.6991577148438	120.2658615112305	1320.057739257813	815.9588623046875	977.691650390625	1321.95458984375	714.7055053710938	886.7041625976563	1377.163330078125	632.5693969726563	40.5544548034668	1369.15234375	660.8936157226563	61.537353515625	1412.303344726563	641.79931640625	89.15583038330078	1367.473266601563	719.1430053710938	445.5478515625	1394.509887695313	748.589111328125	1058.184204101563	1359.977294921875	719.113037109375	510.3602905273438	1389.721801757813	733.8665771484375	491.0194702148438	1266.843872070313	842.466064453125	57.97952270507813	1323.584228515625	859.5614013671875	73.10930633544922	1374.149047851563	824.2848510742188	50.88810729980469	1438.180419921875	646.6953735351563	1028.296630859375	1262.738403320313	696.654052734375	188.1669769287109	1408.336669921875	657.7460327148438	188.0303192138672	1375.016967773438	691.0440063476563	272.8231506347656	1411.955932617188	651.0606689453125	268.4999694824219	1376.319580078125	715.126220703125	611.3333740234375	1396.1806640625	661.2616577148438	603.2123413085938	1346.107177734375	698.2268676757813	719.7578125	1392.39111328125	647.8209228515625	713.3346557617188	1345.580932617188	779.1046752929688	436.91650390625	1357.930541992188	
114	0.7533333333333334	710.4403076171875	102.0869674682617	1038.516357421875	728.3683471679688	118.2499618530273	1118.365844726563	811.7479858398438	981.290283203125	1090.982421875	703.94873046875	892.2201538085938	1043.574584960938	637.5408325195313	39.65106582641602	1083.03466796875	666.5394897460938	56.34000396728516	1038.43603515625	647.3904418945313	90.29322814941406	1084.28857421875	694.62646484375	448.8097839355469	1029.136352539063	762.7969970703125	1065.870849609375	1061.276733398438	691.1018676757813	512.2609252929688	1033.376342773438	715.337646484375	495.4851684570313	1157.534301757813	852.41845703125	56.29360580444336	1124.873779296875	864.3983154296875	69.32658386230469	1079.660522460938	829.0390625	50.96418762207031	1011.203247070313	644.3306274414063	1028.661376953125	1166.022583007813	683.6578369140625	171.3436431884766	1034.412109375	655.9102172851563	170.5847778320313	1080.691772460938	669.4324951171875	249.63818359375	1025.258056640625	641.4329223632813	249.8260345458984	1071.515502929688	692.9290161132813	597.9514770507813	1026.159912109375	644.0435791015625	589.2825927734375	1079.320922851563	674.254150390625	706.4557495117188	1030.226806640625	629.92822265625	699.022705078125	1081.975463867188	754.8114013671875	430.6651916503906	1065.906860351563	706.44775390625	115.8426666259766	1402.740966796875	724.6953735351563	120.2678451538086	1320.070190429688	815.8923950195313	977.6879272460938	1321.953979492188	714.6348266601563	886.70849609375	1377.177734375	632.5709228515625	40.55241394042969	1369.150024414063	660.8956298828125	61.53883361816406	1412.302001953125	641.799072265625	89.15772247314453	1367.477783203125	719.1085815429688	445.5470275878906	1394.50732421875	748.5386962890625	1058.186767578125	1359.978393554688	719.0707397460938	510.3553771972656	1389.724731445313	733.8507080078125	491.0120849609375	1266.84130859375	842.4662475585938	57.97770690917969	1323.586303710938	859.559814453125	73.11309814453125	1374.15771484375	824.2857055664063	50.88433074951172	1438.178466796875	646.629638671875	1028.297485351563	1262.7470703125	696.6422729492188	188.1612854003906	1408.342529296875	657.7349853515625	188.0278472900391	1375.015014648438	691.0308227539063	272.8161010742188	1411.953979492188	651.0505981445313	268.4886779785156	1376.319213867188	715.086669921875	611.3328857421875	1396.18798828125	661.22265625	603.2032470703125	1346.125122070313	698.1865234375	719.7551879882813	1392.411254882813	647.7744140625	713.3341674804688	1345.58740234375	779.082275390625	436.9157104492188	1357.942749023438	
115	0.76	710.4384765625	102.0853805541992	1038.511840820313	728.3721313476563	118.2382354736328	1118.36083984375	811.6998901367188	981.2923583984375	1090.98779296875	703.8853149414063	892.21337890625	1043.57763671875	637.5375366210938	39.64951705932617	1083.027099609375	666.5278930664063	56.34043884277344	1038.437866210938	647.384033203125	90.29042053222656	1084.295043945313	694.6121215820313	448.7911682128906	1029.129272460938	762.7247314453125	1065.873291015625	1061.28466796875	691.081787109375	512.2540283203125	1033.381469726563	715.3383178710938	495.4736633300781	1157.520751953125	851.8438110351563	55.97725296020508	1125.269165039063	864.406494140625	69.33228302001953	1079.65625	829.03955078125	50.95298385620117	1011.19775390625	644.2584838867188	1028.660278320313	1166.031005859375	683.637451171875	171.3386383056641	1034.420776367188	655.858642578125	170.5102844238281	1080.71728515625	669.4214477539063	249.6305236816406	1025.277709960938	641.4284057617188	249.8177795410156	1071.542724609375	692.9067993164063	597.9481201171875	1026.162963867188	644.0194702148438	589.2694091796875	1079.324951171875	674.2105102539063	706.4505004882813	1030.232177734375	629.8948364257813	699.01416015625	1081.972045898438	754.7996215820313	430.6612243652344	1065.903564453125	706.435791015625	115.8432998657227	1402.747192382813	724.6978759765625	120.2634963989258	1320.057983398438	815.8367309570313	977.692626953125	1321.948486328125	714.5759887695313	886.7107543945313	1377.185302734375	632.5737915039063	40.54714202880859	1369.146728515625	660.896240234375	61.53521728515625	1412.30322265625	641.7986450195313	89.15801239013672	1367.47607421875	719.090576171875	445.5524291992188	1394.522094726563	748.4837646484375	1058.192504882813	1359.970947265625	719.0366821289063	510.3607482910156	1389.726928710938	733.831787109375	491.0159301757813	1266.85888671875	842.4671020507813	57.98085403442383	1323.586669921875	859.5606079101563	73.1141357421875	1374.164306640625	824.2939453125	50.8735237121582	1438.161010742188	646.5608520507813	1028.288330078125	1262.749755859375	696.632568359375	188.1645660400391	1408.336791992188	657.734130859375	188.0245513916016	1375.017578125	691.01171875	272.8128662109375	1411.957397460938	651.0318603515625	268.4884948730469	1376.326416015625	715.0419921875	611.3309936523438	1396.190307617188	661.1857299804688	603.21044921875	1346.1298828125	698.1423950195313	719.7564697265625	1392.416015625	647.7371215820313	713.3223876953125	1345.5908203125	779.0460205078125	436.9083557128906	1357.938842773438	
116	0.7666666666666667	710.4349975585938	102.0846176147461	1038.511596679688	728.36767578125	118.2284698486328	1118.351440429688	811.6307983398438	981.2921752929688	1090.980102539063	703.8233032226563	892.21142578125	1043.5849609375	637.5401611328125	39.64575576782227	1083.022583007813	666.5396728515625	56.33041763305664	1038.433959960938	647.3922729492188	90.28229522705078	1084.292358398438	694.5849609375	448.7899780273438	1029.134643554688	762.6612548828125	1065.871826171875	1061.282592773438	691.07568359375	512.2611694335938	1033.377563476563	715.3174438476563	495.4434814453125	1157.50341796875	851.8403930664063	55.97807693481445	1125.264892578125	864.4039306640625	69.33383178710938	1079.652221679688	829.0377197265625	50.95952224731445	1011.190979003906	644.1910400390625	1028.6552734375	1166.031372070313	683.6223754882813	171.3399505615234	1034.420288085938	655.8513793945313	170.5063323974609	1080.732666015625	669.4027099609375	249.6324920654297	1025.286499023438	641.428955078125	249.817626953125	1071.561645507813	692.8758544921875	597.9500122070313	1026.161865234375	643.998046875	589.2564697265625	1079.317138671875	674.1724243164063	706.441650390625	1030.237548828125	629.8709716796875	698.9988403320313	1081.9765625	754.7941284179688	430.6611022949219	1065.903198242188	706.4423828125	115.841552734375	1402.742309570313	724.6907348632813	120.272331237793	1320.057373046875	815.7724609375	977.6935424804688	1321.947143554688	714.520751953125	886.7056884765625	1377.187866210938	632.5731201171875	40.55211639404297	1369.151489257813	660.9017333984375	61.53347778320313	1412.306030273438	641.7996826171875	89.15738677978516	1367.47998046875	719.061279296875	445.5468444824219	1394.520629882813	748.427978515625	1058.2060546875	1359.971435546875	719.0084838867188	510.3460998535156	1389.7353515625	733.7918090820313	491.0250854492188	1266.857055664063	842.4669189453125	57.97729110717773	1323.590942382813	859.56396484375	73.11407470703125	1374.154052734375	824.2928466796875	50.8862419128418	1438.179565429688	646.4880981445313	1028.287109375	1262.762084960938	696.6287231445313	188.1585083007813	1408.343383789063	657.7208251953125	188.0118255615234	1375.017822265625	691.0007934570313	272.8067932128906	1411.96923828125	651.0223388671875	268.48095703125	1376.32080078125	715.0081787109375	611.324951171875	1396.194580078125	661.1416015625	603.2028198242188	1346.138671875	698.0911865234375	719.75390625	1392.425170898438	647.7029418945313	713.3264770507813	1345.596435546875	779.02783203125	436.9125061035156	1357.948364257813	
